<svg id="Layer_1" enable-background="new 0 0 512 512" height="512" viewBox="0 0 512 512" width="512" xmlns="http://www.w3.org/2000/svg"><g><path d="m176.824 65.452c3.912 1.364 8.188-.701 9.551-4.612 7.444-21.344 12.415-36.381 14.732-43.498 8.495-.847 28.114-2.437 54.92-2.337 26.803-.095 46.378 1.49 54.868 2.337 5.466 16.769 25.7 77.577 58.929 163.203 1.153 2.97 3.989 4.789 6.994 4.789.902 0 1.82-.164 2.711-.51 3.862-1.499 5.777-5.844 4.279-9.706-38.93-100.31-59.911-166.308-60.118-166.963-.88-2.777-3.288-4.794-6.176-5.172-.97-.127-24.202-3.125-61.487-2.978-37.324-.135-60.571 2.851-61.541 2.978-2.889.378-5.297 2.396-6.176 5.173-.054.172-5.582 17.593-16.098 47.746-1.364 3.91.701 8.187 4.612 9.55z"/><path d="m511.254 468.936c-40.412-83.694-79.051-171.756-114.842-261.74-1.53-3.848-5.891-5.728-9.741-4.197-3.849 1.531-5.728 5.892-4.197 9.741 34.896 87.734 72.491 173.65 111.798 255.505-6.057 2.3-15.902 5.756-29.272 9.544-20.994 5.949-55.055 13.909-99.738 18.692-2.556-5.765-7.201-16.273-13.23-30.056-1.66-3.795-6.082-5.526-9.877-3.865-3.795 1.66-5.525 6.082-3.866 9.877 9.378 21.438 15.42 34.985 15.48 35.12 1.214 2.722 3.911 4.444 6.846 4.444.247 0 .495-.012.744-.037 93.309-9.269 144.125-31.976 146.242-32.938 1.838-.835 3.263-2.377 3.95-4.276.689-1.9.581-3.996-.297-5.814z"/><path d="m339.027 436.529c-8.812-20.369-17.372-40.387-25.442-59.498-1.325-3.139-4.598-4.99-7.973-4.507-.283.041-28.51 4.051-49.612 4.051-21.078 0-49.33-4.011-49.613-4.051-3.371-.483-6.647 1.367-7.973 4.507-23.593 55.87-44.931 104.231-51.678 119.45-68.091-7.287-112.559-22.032-129.004-28.247 72.529-151.032 125.285-286.67 156.937-374.41 1.405-3.896-.614-8.194-4.51-9.6s-8.195.614-9.6 4.51c-32.036 88.803-85.767 226.851-159.813 380.202-.878 1.819-.986 3.915-.298 5.813.687 1.899 2.111 3.44 3.95 4.276 2.118.962 52.934 23.67 146.242 32.938.25.025.498.037.744.037 2.935 0 5.632-1.722 6.846-4.444.245-.549 24.184-54.239 51.775-119.42 9.633 1.214 29.531 3.439 45.995 3.439s36.362-2.225 45.995-3.439c7.428 17.549 15.243 35.803 23.266 54.349 1.645 3.802 6.059 5.55 9.861 3.905 3.801-1.644 5.55-6.059 3.905-9.861z"/><path d="m217.004 282.787c.922.228 15.79 3.805 38.209 3.805 11.447 0 24.865-.933 39.398-3.721 2.157-.414 4.023-1.752 5.108-3.661 1.084-1.91 1.278-4.198.529-6.263-20.884-57.556-36.854-115.904-37.013-116.487-.89-3.263-3.854-5.527-7.236-5.527s-6.346 2.264-7.236 5.527c-.159.583-16.129 58.93-37.012 116.487-.726 2-.568 4.213.434 6.09s2.754 3.239 4.819 3.75zm38.996-97.174c6.165 20.842 15.809 52.096 27.11 83.979-23.76 3.409-43.66 1.656-54.261.115 11.32-31.924 20.979-63.227 27.151-84.094z"/><path d="m81.069 385.151c-3.778-1.701-8.217-.017-9.918 3.76-9.505 21.114-19.243 42.243-28.942 62.8-.935 1.981-.957 4.273-.059 6.272s2.625 3.505 4.727 4.124c17.715 5.209 46.845 12.473 85.02 17.5 3.3.428 6.501-1.364 7.844-4.416 10.888-24.746 41.926-96.209 53.085-125.474 10.426 2.453 32.182 6.452 63.175 6.452s52.749-4 63.175-6.452c11.16 29.266 42.198 100.728 53.085 125.474 1.209 2.748 3.92 4.48 6.861 4.48.325 0 .653-.021.982-.064 38.174-5.027 67.304-12.292 85.02-17.5 2.102-.618 3.829-2.125 4.727-4.124.897-1.999.875-4.291-.059-6.272-90.183-191.146-147.839-354.261-168.442-415.519-.972-2.89-3.596-4.903-6.639-5.095-12.263-.771-25.258-1.139-38.604-1.092h-.19c-13.375-.047-26.366.322-38.629 1.092-3.042.191-5.667 2.205-6.639 5.094-15.528 46.169-58.893 170.012-126.026 322.462-1.669 3.791.05 8.217 3.841 9.886.983.433 2.009.638 3.019.638 2.882 0 5.631-1.672 6.868-4.479 65.172-147.995 108.044-269.184 124.894-318.92 10.445-.551 21.399-.809 32.646-.773h.241c11.233-.038 22.177.222 32.621.773 21.667 63.982 77.592 220.714 163.703 404.321-16.384 4.452-39.675 9.788-68.737 13.876-12.162-27.776-45.24-104.11-52.784-125.727-1.337-3.833-5.493-5.903-9.361-4.674-.239.076-24.405 7.594-65.575 7.594s-65.335-7.518-65.563-7.59c-3.873-1.243-8.032.83-9.372 4.67-7.543 21.617-40.622 97.951-52.784 125.727-29.062-4.088-52.354-9.424-68.737-13.876 8.486-18.096 16.974-36.57 25.286-55.031 1.701-3.777.017-8.217-3.76-9.917z"/></g></svg>